# xmcd
#
# Track frame offsets:
#	150
#	12817
#	27310
#	42242
#	61691
#	81603
#	99381
#	115960
#	132592
#	150023
#	167597
#	183731
#	197275
#	211570
#	228051
#	244660
#	261241
#	282079
#	300545
#	318402
#
# Disc length: 4474 seconds
#
# Revision: 0
# Processed by: cddbd v1.5.2PL0 Copyright (c) Steve Scherf et al.
# Submitted via: EasyCDDAExtractor 12.0.0.1
#
DISCID=fa117814
DTITLE=Kamélie - Best Of Dana and Hana
DYEAR=2007
DGENRE=Pop - Country
TTITLE0=Hej,pane šenku 
TTITLE1=Žádnej pláč 
TTITLE2=Dej mi jednu krátkou chvíli 
TTITLE3=Sejf 
TTITLE4=Za bílou čárou 
TTITLE5=Měj se 
TTITLE6=Čau,Pepino 
TTITLE7=Žárlí 
TTITLE8=Cukr,káva,limonáda 
TTITLE9=Jako Robinson 
TTITLE10=Fantom 
TTITLE11=Horký letní den 
TTITLE12=Ráda tančím 
TTITLE13=Bludný Holanďan 
TTITLE14=Týden 
TTITLE15=Démon 
TTITLE16=Sladké baby 
TTITLE17=Formule 
TTITLE18=Móda 
TTITLE19=Vodní víly
EXTD=
EXTT0=
EXTT1=
EXTT2=
EXTT3=
EXTT4=
EXTT5=
EXTT6=
EXTT7=
EXTT8=
EXTT9=
EXTT10=
EXTT11=
EXTT12=
EXTT13=
EXTT14=
EXTT15=
EXTT16=
EXTT17=
EXTT18=
EXTT19=
PLAYORDER=
